<svg width="315" height="160" viewBox="0 0 315 160" fill="none" xmlns="http://www.w3.org/2000/svg">
<path d="M295.4 16.6C285.163 1.00004 266.438 4.13338 253.619 23.6667C246.619 34.3334 242.594 49.4667 242.506 60.0667C242.419 70.6 243.644 86 236.6 96.7334L218.05 125L224.263 134.467L242.813 106.2C249.856 95.4667 259.963 97.3334 266.875 97.2C273.788 97.0667 283.763 90.9334 290.763 80.2667C303.538 60.7334 305.638 32.2 295.4 16.6V16.6ZM255.15 77.8667C248.456 67.6667 250.556 47.1334 259.788 33.0667C269.019 19 282.45 15.8 289.188 26C295.881 36.2 293.781 56.7334 284.55 70.8C275.319 84.8667 261.888 88.0667 255.15 77.8667V77.8667ZM288.75 113.333C291.069 113.333 293.3 114.733 294.919 117.267C298.331 122.467 298.331 130.933 294.919 136.133C293.3 138.6 291.069 140 288.75 140C286.431 140 284.2 138.6 282.581 136.067C279.169 130.867 279.169 122.4 282.581 117.2C284.2 114.733 286.431 113.333 288.75 113.333ZM288.75 100C285.285 99.9895 281.896 101.547 279.013 104.476C276.13 107.405 273.882 111.573 272.556 116.451C271.23 121.329 270.884 126.697 271.563 131.875C272.242 137.053 273.914 141.806 276.369 145.533C279.781 150.733 284.288 153.333 288.75 153.333C292.215 153.344 295.604 151.786 298.487 148.857C301.37 145.928 303.618 141.761 304.944 136.883C306.27 132.005 306.616 126.636 305.937 121.459C305.259 116.281 303.586 111.527 301.131 107.8C299.505 105.324 297.575 103.36 295.45 102.022C293.326 100.684 291.049 99.9966 288.75 100V100Z" fill="black"/>
<path d="M157.5 13.3334C133.35 13.3334 113.75 43.2 113.75 80C113.75 116.8 133.35 146.667 157.5 146.667C181.65 146.667 201.25 116.8 201.25 80C201.25 43.2 181.65 13.3334 157.5 13.3334ZM161.875 35.3334L167.781 29C175.695 32.737 182.484 40.626 186.944 51.2667L185.238 60.2L179.331 63.2667L161.875 44.6667V35.3334ZM147.219 29L153.125 35.3334V44.6667L135.669 63.2667L129.762 60.2L128.056 51.2667C132.541 40.6625 139.321 32.7848 147.219 29V29ZM135.975 114.067L130.988 114.733C125.503 105.093 122.489 92.7583 122.5 80C122.5 79.2 122.544 78.4667 122.587 77.6667L126.962 72.8L133 76L139.388 104.933L135.975 114.067V114.067ZM168.438 130.6C164.981 132.333 161.306 133.333 157.5 133.333C153.694 133.333 150.019 132.333 146.562 130.6L143.544 120.667L146.344 113.333H168.7L171.5 120.733L168.438 130.6V130.6ZM167.431 100H147.569L141.663 73.2L157.5 56.2667L173.381 73.2L167.431 100ZM184.012 114.733L179.025 114.067L175.569 104.933L181.956 76L188.037 72.8667L192.412 77.7334C192.456 78.4667 192.5 79.2 192.5 80C192.5 93.2667 189.306 105.4 184.012 114.733V114.733Z" fill="black"/>
<path d="M65.8438 85.4L28.7 28.8C28.2953 28.1819 27.8145 27.6916 27.2853 27.3571C26.756 27.0225 26.1887 26.8503 25.6157 26.8503C25.0427 26.8503 24.4753 27.0225 23.9461 27.3571C23.4168 27.6916 22.936 28.1819 22.5313 28.8L10.15 47.6666C9.74447 48.2834 9.4227 49.016 9.20316 49.8225C8.98361 50.629 8.87061 51.4935 8.87061 52.3666C8.87061 53.2398 8.98361 54.1043 9.20316 54.9108C9.4227 55.7173 9.74447 56.4499 10.15 57.0666L47.2938 113.667C49 116.267 51.7563 116.267 53.4625 113.667L65.8438 94.8C66.2494 94.1832 66.5711 93.4506 66.7907 92.6441C67.0102 91.8376 67.1232 90.9731 67.1232 90.1C67.1232 89.2269 67.0102 88.3623 66.7907 87.5558C66.5711 86.7493 66.2494 86.0167 65.8438 85.4V85.4ZM62.7419 118.373L68.9282 108.947L87.4913 137.233L81.305 146.66L62.7419 118.373Z" fill="black"/>
<path d="M80.9375 60C89.3944 60 96.25 49.5534 96.25 36.6667C96.25 23.7801 89.3944 13.3334 80.9375 13.3334C72.4806 13.3334 65.625 23.7801 65.625 36.6667C65.625 49.5534 72.4806 60 80.9375 60Z" fill="black"/>
</svg>
